PathFileType	4	(X/Y/Z)	DARI_DATA/Captury_Subj7_bilateral_squat01.trc
DataRate	CameraRate	NumFrames	NumMarkers	Units	OrigDataRate	OrigDataStartFrame	OrigNumFrames
60	60	5	47	mm	60.00239944458008	313	357
Frame#	Time		LeftUpLeg_		RightUpLeg_		LeftLeg_		RightLeg_		LeftFoot_		RightFoot_		LeftToeBase_		RightToeBase_		Knee_Lateral_r		Knee_Lateral_l		Ankle_Lateral_r		Ankle_Lateral_l		LeftArm_		LeftForeArm_		LeftHand_		LeftHandEE		RightArm_		RightForeArm_		RightHand_		RightHandEE		Spine_		Spine1_		Spine2_		Spine3_		Spine4_		Spine5_		Spine_x		Spine_y		Spine_z		RASI		LASI		RIPS		LIPS		RTHI		LTHI		RTIB		LTIB		RTOE		LTOE		RHEE		LHEE		RHipAngles		LHipAngles		RKneeAngles		LKneeAngles		RAnkleAngles		LAnkleAngles
			X1	Y1	Z1	X2	Y2	Z2	X3	Y3	Z3	X4	Y4	Z4	X5	Y5	Z5	X6	Y6	Z6	X7	Y7	Z7	X8	Y8	Z8	X9	Y9	Z9	X10	Y10	Z10	X11	Y11	Z11	X12	Y12	Z12	X13	Y13	Z13	X14	Y14	Z14	X15	Y15	Z15	X16	Y16	Z16	X17	Y17	Z17	X18	Y18	Z18	X19	Y19	Z19	X20	Y20	Z20	X21	Y21	Z21	X22	Y22	Z22	X23	Y23	Z23	X24	Y24	Z24	X25	Y25	Z25	X26	Y26	Z26	X27	Y27	Z27	X28	Y28	Z28	X29	Y29	Z29	X30	Y30	Z30	X31	Y31	Z31	X32	Y32	Z32	X33	Y33	Z33	X34	Y34	Z34	X35	Y35	Z35	X36	Y36	Z36	X37	Y37	Z37	X38	Y38	Z38	X39	Y39	Z39	X40	Y40	Z40	X41	Y41	Z41	X42	Y42	Z42	X43	Y43	Z43	X44	Y44	Z44	X45	Y45	Z45	X46	Y46	Z46	X47	Y47	Z47

313	5.20000	-133.88010	897.06787	18.19502	42.00650	897.29749	14.79129	-224.05760	480.21002	-13.49167	129.36569	479.12360	-5.34507	-288.79605	92.32217	20.63194	193.08954	92.02319	38.30119	-302.55081	27.00546	-98.87862	209.58276	26.05471	-80.50274	176.72589	485.93076	5.62444	-271.52209	487.11749	-3.04829	235.80087	100.96800	68.14971	-331.96808	100.93582	49.90962	-177.28899	1394.03296	-30.23347	-290.58331	1114.94104	2.18351	-359.31146	867.54309	-28.41293	-354.94083	774.62836	-44.33325	85.51096	1388.20190	-32.41223	201.16737	1108.85608	-13.22194	272.22610	863.15289	-51.24903	269.75781	768.82434	-52.57272	-45.68026	993.13818	36.22450	-46.00921	1095.93835	14.18800	-45.72760	1172.87183	20.11670	-45.29632	1267.43127	44.60070	-44.46016	1407.14746	20.16534	-0.00000	0.00000	-0.00000	3.46106	993.20233	35.27352	-45.74078	1042.28833	36.41376	-44.72905	992.95013	85.36549	99.49709	964.29193	-84.68039	-195.35080	963.90692	-78.97453	-5.76017	963.58661	64.83475	-84.38628	963.48395	66.35632	147.75517	714.07068	23.84545	-241.11789	714.50873	21.19925	199.60092	310.24673	8.30830	-302.30042	252.75113	-5.20613	222.71042	29.03246	-156.49342	-313.02423	33.06554	-175.09784	179.89276	31.12937	95.31322	-278.90652	31.02338	77.87912	-4.23181	8.96270	13.48856	-5.70443	9.27920	10.39569	-3.56758	-0.54817	-0.01327	-3.78648	-0.89284	-0.15727	8.49950	-4.71436	-10.08055	9.30950	-5.63875	-8.54836
314	5.21667	-134.19081	897.27002	17.54923	41.68229	897.52759	13.50788	-223.70581	480.05930	-11.23990	129.49832	479.33160	-4.01470	-288.66183	92.02780	20.77232	193.09912	92.02325	37.93451	-302.31042	26.64445	-98.71400	210.07487	26.02087	-80.78261	176.81584	486.24481	7.07208	-271.19571	486.97177	-0.91596	235.75339	100.92466	67.87746	-331.90042	100.61748	49.95869	-177.36946	1393.82263	-29.40772	-289.64175	1114.21777	2.13351	-357.68030	866.68909	-28.94341	-353.10431	773.94348	-45.76698	85.31310	1387.90381	-31.81210	200.39757	1108.29810	-12.97186	270.05942	862.33038	-51.86366	266.51825	768.02734	-52.20632	-45.93830	993.32666	35.39311	-46.33939	1096.00720	13.60076	-46.01511	1172.75269	19.75633	-45.46585	1267.05676	44.57248	-44.56839	1406.69385	20.67728	-0.00000	0.00000	-0.00000	3.19925	993.39862	34.26399	-46.00435	1042.47656	35.65138	-44.80882	993.06995	84.53003	98.80321	964.66870	-86.07783	-196.02205	964.23688	-79.30310	-5.91095	963.74030	63.81700	-84.53101	963.62518	65.62360	147.57199	714.45483	23.92827	-241.16306	714.57806	21.72350	199.68857	310.38306	8.96737	-302.04410	252.58812	-4.30210	223.59862	29.09842	-156.69983	-312.57513	32.72037	-174.96034	179.50462	31.15530	94.88070	-279.09900	30.75154	78.09908	-3.84800	9.03249	13.87944	-5.18890	9.18203	10.11345	-3.00388	-0.74159	-0.02640	-3.07542	-0.94030	-0.12772	8.80091	-4.56394	-10.13354	9.62854	-5.63611	-8.32640
315	5.23333	-134.38829	897.47809	17.04916	41.47305	897.71027	12.52401	-223.28250	479.97943	-9.39334	129.12415	479.38174	-2.47778	-288.53976	91.85886	20.87962	193.14764	91.95413	37.68854	-302.16678	26.27460	-98.49898	210.32826	25.93938	-80.99221	176.44711	486.34399	8.55498	-270.79053	486.88333	0.85269	235.85489	100.86005	67.55453	-331.82678	100.46761	49.98849	-177.31506	1393.54651	-28.66715	-288.94806	1113.61230	2.21475	-355.88696	865.96417	-30.26667	-351.39780	773.40942	-48.13249	85.21297	1387.86475	-31.16051	199.41148	1107.86572	-12.77596	267.75403	861.72864	-52.91677	263.65274	767.44794	-52.71052	-46.06842	993.48395	34.83267	-46.50546	1096.10645	13.27502	-46.14840	1172.72949	19.62258	-45.52573	1266.85986	44.69494	-44.61983	1406.45630	21.19731	-0.00000	0.00000	-0.00000	3.06584	993.54883	33.56838	-46.12426	1042.63318	35.18463	-44.80370	993.13354	83.96571	98.33252	965.03003	-87.09068	-196.47302	964.64075	-79.50493	-5.96867	963.83606	63.08988	-84.58348	963.73224	65.11275	147.29510	714.66351	24.03078	-241.10207	714.65985	22.19693	199.48630	310.43967	9.62813	-301.77112	252.52898	-3.56389	224.01500	29.09580	-156.87695	-312.25684	32.27721	-174.77443	179.39867	31.09546	94.60754	-279.30087	30.66953	78.35217	-3.38780	9.01982	14.02323	-4.72771	9.07968	9.91936	-2.40232	-0.80799	-0.05907	-2.49052	-0.94644	-0.12600	9.08191	-4.35654	-10.18871	9.96359	-5.63562	-8.09352
316	5.25000	-134.59966	897.65509	16.14397	41.25631	897.74683	11.40815	-222.75368	479.80542	-7.03055	128.28471	479.20013	-0.89029	-288.51398	91.60571	21.05964	193.44592	91.80289	37.70880	-302.20346	26.06216	-98.33420	211.18384	25.94716	-80.97832	175.61452	486.16190	10.11339	-270.27411	486.70517	3.16061	236.16711	100.78014	67.53349	-331.83722	100.20826	50.11643	-177.17270	1393.36340	-27.72463	-288.10159	1113.04553	2.19917	-354.01279	865.36011	-32.05121	-350.15201	773.10913	-51.55944	85.05072	1387.88989	-30.31054	198.52499	1107.55750	-12.53066	265.36459	861.30225	-54.43860	260.78629	767.04529	-53.82547	-46.18666	993.62738	33.64405	-46.58439	1096.18604	12.25257	-46.19817	1172.68677	18.88411	-45.56157	1266.57324	44.50056	-44.69223	1406.23523	22.00219	-0.00000	0.00000	-0.00000	2.94609	993.65302	32.32090	-46.20527	1042.77722	33.90506	-44.86340	993.36694	82.77612	98.04692	964.83936	-88.39897	-196.74959	964.68555	-80.46006	-6.07534	964.00171	61.90816	-84.68774	963.96069	64.02521	146.80002	714.61908	24.11977	-240.98962	714.69403	22.72150	199.13457	310.41003	10.46832	-301.51422	252.41827	-2.55676	225.12277	29.24529	-156.81114	-312.12384	32.11583	-174.62790	179.64537	30.85542	94.52022	-279.65140	30.38596	78.55904	-3.11768	8.97429	14.11305	-4.35695	8.93674	9.86200	-1.76979	-0.70182	-0.07749	-1.71230	-0.94080	-0.12516	9.27695	-4.10365	-10.21286	10.25437	-5.63567	-7.84442
317	5.26667	-134.54955	897.55182	16.02005	41.28994	897.96539	10.72330	-222.25189	479.51224	-5.37530	128.12044	479.33493	-0.02754	-288.28918	91.25778	21.27212	193.55151	91.89182	37.64437	-302.09409	25.74616	-98.12594	212.02312	26.29599	-81.07475	175.44696	486.31281	10.98006	-269.78168	486.40482	4.77704	236.27126	100.84489	67.47839	-331.63901	99.84904	50.29256	-177.48985	1393.55908	-26.62927	-287.41476	1112.70569	1.94745	-352.13528	865.01025	-34.43472	-349.16797	772.95947	-55.01554	84.70382	1387.59851	-29.36896	198.01167	1107.16516	-12.12886	263.21814	860.88647	-56.40477	257.80725	766.67621	-55.47625	-46.25130	993.64722	33.42374	-46.84350	1096.16492	12.25542	-46.46327	1172.56445	19.06126	-45.69843	1266.30310	44.90282	-44.74593	1405.93335	22.75132	-0.00000	0.00000	-0.00000	2.87685	993.76276	31.94387	-46.35616	1042.79639	33.77998	-44.77063	993.29431	82.55073	97.64247	965.35138	-89.13440	-197.12645	964.65808	-80.25517	-5.99746	964.03839	61.50229	-84.60250	963.85352	63.87008	146.73602	714.83264	24.15304	-240.74498	714.50690	23.36352	199.08670	310.56647	10.91820	-301.15900	252.15999	-1.79913	226.34500	29.89247	-156.82259	-311.86746	31.87362	-174.43271	179.58649	30.80962	94.27060	-279.79919	30.01316	78.80126	-2.77385	8.84436	14.33773	-4.00699	8.97232	9.66538	-1.42064	-0.71363	-0.07450	-1.25102	-0.93940	-0.12431	9.32824	-3.80234	-10.17246	10.44194	-5.63602	-7.57250
